<svg width="65" height="65" viewBox="0 0 65 65" fill="none" xmlns="http://www.w3.org/2000/svg">
<circle cx="32.5" cy="32.5" r="32.5" fill="#D9D9D9"/>
<path d="M32.4467 18.2727V27H31.0405L26.9283 21.0554H26.8558V27H25.2749V18.2727H26.6896L30.7976 24.2216H30.8743V18.2727H32.4467ZM36.9563 27.1278C36.3171 27.1278 35.7631 26.9872 35.2944 26.706C34.8256 26.4247 34.462 26.0312 34.2035 25.5256C33.9478 25.0199 33.82 24.429 33.82 23.7528C33.82 23.0767 33.9478 22.4844 34.2035 21.9759C34.462 21.4673 34.8256 21.0724 35.2944 20.7912C35.7631 20.5099 36.3171 20.3693 36.9563 20.3693C37.5955 20.3693 38.1495 20.5099 38.6183 20.7912C39.087 21.0724 39.4492 21.4673 39.7049 21.9759C39.9634 22.4844 40.0927 23.0767 40.0927 23.7528C40.0927 24.429 39.9634 25.0199 39.7049 25.5256C39.4492 26.0312 39.087 26.4247 38.6183 26.706C38.1495 26.9872 37.5955 27.1278 36.9563 27.1278ZM36.9648 25.892C37.3114 25.892 37.6012 25.7969 37.8342 25.6065C38.0671 25.4134 38.2404 25.1548 38.354 24.831C38.4705 24.5071 38.5288 24.1463 38.5288 23.7486C38.5288 23.348 38.4705 22.9858 38.354 22.6619C38.2404 22.3352 38.0671 22.0753 37.8342 21.8821C37.6012 21.6889 37.3114 21.5923 36.9648 21.5923C36.6097 21.5923 36.3143 21.6889 36.0785 21.8821C35.8455 22.0753 35.6708 22.3352 35.5543 22.6619C35.4407 22.9858 35.3839 23.348 35.3839 23.7486C35.3839 24.1463 35.4407 24.5071 35.5543 24.831C35.6708 25.1548 35.8455 25.4134 36.0785 25.6065C36.3143 25.7969 36.6097 25.892 36.9648 25.892ZM20.7328 33.2727V42H19.1518V33.2727H20.7328ZM25.2317 42.1278C24.5783 42.1278 24.0172 41.9844 23.5485 41.6974C23.0826 41.4105 22.7232 41.0142 22.4703 40.5085C22.2203 40 22.0953 39.4148 22.0953 38.7528C22.0953 38.0881 22.2232 37.5014 22.4789 36.9929C22.7346 36.4815 23.0953 36.0838 23.5613 35.7997C24.03 35.5128 24.584 35.3693 25.2232 35.3693C25.7544 35.3693 26.2246 35.4673 26.6337 35.6634C27.0456 35.8565 27.3738 36.1307 27.6181 36.4858C27.8624 36.8381 28.0016 37.25 28.0357 37.7216H26.5613C26.5016 37.4062 26.3596 37.1435 26.1351 36.9332C25.9135 36.7202 25.6167 36.6136 25.2445 36.6136C24.9292 36.6136 24.6522 36.6989 24.4135 36.8693C24.1749 37.0369 23.9888 37.2784 23.8553 37.5938C23.7246 37.9091 23.6593 38.2869 23.6593 38.7273C23.6593 39.1733 23.7246 39.5568 23.8553 39.8778C23.986 40.196 24.1692 40.4418 24.405 40.6151C24.6436 40.7855 24.9235 40.8707 25.2445 40.8707C25.4718 40.8707 25.6749 40.8281 25.8539 40.7429C26.0357 40.6548 26.1877 40.5284 26.3098 40.3636C26.432 40.1989 26.5158 39.9986 26.5613 39.7628H28.0357C27.9988 40.2259 27.8624 40.6364 27.6266 40.9943C27.3908 41.3494 27.0698 41.6278 26.6635 41.8295C26.2573 42.0284 25.78 42.1278 25.2317 42.1278ZM32.1575 42.1278C31.5183 42.1278 30.9643 41.9872 30.4956 41.706C30.0268 41.4247 29.6632 41.0312 29.4047 40.5256C29.149 40.0199 29.0211 39.429 29.0211 38.7528C29.0211 38.0767 29.149 37.4844 29.4047 36.9759C29.6632 36.4673 30.0268 36.0724 30.4956 35.7912C30.9643 35.5099 31.5183 35.3693 32.1575 35.3693C32.7967 35.3693 33.3507 35.5099 33.8194 35.7912C34.2882 36.0724 34.6504 36.4673 34.9061 36.9759C35.1646 37.4844 35.2939 38.0767 35.2939 38.7528C35.2939 39.429 35.1646 40.0199 34.9061 40.5256C34.6504 41.0312 34.2882 41.4247 33.8194 41.706C33.3507 41.9872 32.7967 42.1278 32.1575 42.1278ZM32.166 40.892C32.5126 40.892 32.8024 40.7969 33.0353 40.6065C33.2683 40.4134 33.4416 40.1548 33.5552 39.831C33.6717 39.5071 33.7299 39.1463 33.7299 38.7486C33.7299 38.348 33.6717 37.9858 33.5552 37.6619C33.4416 37.3352 33.2683 37.0753 33.0353 36.8821C32.8024 36.6889 32.5126 36.5923 32.166 36.5923C31.8109 36.5923 31.5154 36.6889 31.2797 36.8821C31.0467 37.0753 30.872 37.3352 30.7555 37.6619C30.6419 37.9858 30.585 38.348 30.585 38.7486C30.585 39.1463 30.6419 39.5071 30.7555 39.831C30.872 40.1548 31.0467 40.4134 31.2797 40.6065C31.5154 40.7969 31.8109 40.892 32.166 40.892ZM38.1458 38.1648V42H36.6032V35.4545H38.0776V36.5668H38.1543C38.3049 36.2003 38.5449 35.9091 38.8745 35.6932C39.2069 35.4773 39.6174 35.3693 40.106 35.3693C40.5577 35.3693 40.9512 35.4659 41.2864 35.6591C41.6245 35.8523 41.8858 36.1321 42.0705 36.4986C42.258 36.8651 42.3503 37.3097 42.3475 37.8324V42H40.8049V38.071C40.8049 37.6335 40.6912 37.2912 40.464 37.044C40.2395 36.7969 39.9284 36.6733 39.5307 36.6733C39.2608 36.6733 39.0208 36.733 38.8105 36.8523C38.6032 36.9687 38.4398 37.1378 38.3205 37.3594C38.204 37.581 38.1458 37.8494 38.1458 38.1648ZM49.089 37.1847L47.6827 37.3381C47.6429 37.196 47.5733 37.0625 47.4739 36.9375C47.3773 36.8125 47.2466 36.7116 47.0819 36.6349C46.9171 36.5582 46.7154 36.5199 46.4767 36.5199C46.1557 36.5199 45.8858 36.5895 45.6671 36.7287C45.4512 36.8679 45.3446 37.0483 45.3475 37.2699C45.3446 37.4602 45.4142 37.6151 45.5563 37.7344C45.7012 37.8537 45.9398 37.9517 46.2722 38.0284L47.3887 38.267C48.008 38.4006 48.4682 38.6122 48.7694 38.902C49.0733 39.1918 49.2267 39.571 49.2296 40.0398C49.2267 40.4517 49.106 40.8153 48.8674 41.1307C48.6316 41.4432 48.3034 41.6875 47.883 41.8636C47.4625 42.0398 46.9796 42.1278 46.4341 42.1278C45.633 42.1278 44.9881 41.9602 44.4995 41.625C44.0108 41.2869 43.7196 40.8168 43.6259 40.2145L45.1301 40.0696C45.1983 40.3651 45.3432 40.5881 45.5648 40.7386C45.7864 40.8892 46.0748 40.9645 46.4299 40.9645C46.7963 40.9645 47.0904 40.8892 47.312 40.7386C47.5364 40.5881 47.6486 40.402 47.6486 40.1804C47.6486 39.9929 47.5762 39.8381 47.4313 39.7159C47.2892 39.5937 47.0676 39.5 46.7665 39.4347L45.65 39.2003C45.0222 39.0696 44.5577 38.8494 44.2566 38.5398C43.9554 38.2273 43.8063 37.8324 43.8091 37.3551C43.8063 36.9517 43.9157 36.6023 44.1373 36.3068C44.3617 36.0085 44.6728 35.7784 45.0705 35.6165C45.4711 35.4517 45.9327 35.3693 46.4554 35.3693C47.2225 35.3693 47.8262 35.5327 48.2665 35.8594C48.7097 36.1861 48.9838 36.6278 49.089 37.1847Z" fill="black"/>
</svg>
