<svg width="256" height="49" viewBox="0 0 256 49" fill="none" xmlns="http://www.w3.org/2000/svg">
<g clip-path="url(#clip0_1766_1899)">
<rect width="256" height="49" fill="white"/>
<mask id="path-1-inside-1_1766_1899" fill="white">
<path fill-rule="evenodd" clip-rule="evenodd" d="M233 22C233 9.84973 223.15 0 211 0H22C9.84974 0 0 9.84974 0 22V277C0 289.15 9.84974 299 22 299H465C477.15 299 487 289.15 487 277V67C487 54.8497 477.15 45 465 45H255C242.85 45 233 35.1503 233 23V22Z"/>
</mask>
<path d="M22 1H211V-1H22V1ZM1 277V22H-1V277H1ZM465 298H22V300H465V298ZM486 67V277H488V67H486ZM465 44H255V46H465V44ZM234 23V22H232V23H234ZM255 44C243.402 44 234 34.598 234 23H232C232 35.7025 242.297 46 255 46V44ZM488 67C488 54.2975 477.703 44 465 44V46C476.598 46 486 55.402 486 67H488ZM465 300C477.703 300 488 289.703 488 277H486C486 288.598 476.598 298 465 298V300ZM-1 277C-1 289.703 9.29745 300 22 300V298C10.402 298 1 288.598 1 277H-1ZM211 1C222.598 1 232 10.402 232 22H234C234 9.29745 223.703 -1 211 -1V1ZM22 -1C9.29745 -1 -1 9.29745 -1 22H1C1 10.402 10.402 1 22 1V-1Z" fill="#1D1D20" mask="url(#path-1-inside-1_1766_1899)"/>
</g>
<defs>
<clipPath id="clip0_1766_1899">
<rect width="256" height="49" fill="white"/>
</clipPath>
</defs>
</svg>
