<svg width="274" height="49" viewBox="0 0 274 49" fill="none" xmlns="http://www.w3.org/2000/svg">
<g clip-path="url(#clip0_1774_1930)">
<mask id="path-1-inside-1_1774_1930" fill="white">
<path fill-rule="evenodd" clip-rule="evenodd" d="M274 22C274 9.84974 264.15 0 252 0H42C29.8497 0 20 9.84973 20 22V23C20 35.1503 10.1503 45 -2 45H-191C-203.15 45 -213 54.8497 -213 67V277C-213 289.15 -203.15 299 -191 299H252C264.15 299 274 289.15 274 277V22Z"/>
</mask>
<path fill-rule="evenodd" clip-rule="evenodd" d="M274 22C274 9.84974 264.15 0 252 0H42C29.8497 0 20 9.84973 20 22V23C20 35.1503 10.1503 45 -2 45H-191C-203.15 45 -213 54.8497 -213 67V277C-213 289.15 -203.15 299 -191 299H252C264.15 299 274 289.15 274 277V22Z" fill="white"/>
<path d="M42 1H252V-1H42V1ZM21 23V22H19V23H21ZM-191 46H-2V44H-191V46ZM-212 277V67H-214V277H-212ZM252 298H-191V300H252V298ZM273 22V277H275V22H273ZM252 300C264.703 300 275 289.703 275 277H273C273 288.598 263.598 298 252 298V300ZM-214 277C-214 289.703 -203.703 300 -191 300V298C-202.598 298 -212 288.598 -212 277H-214ZM-191 44C-203.703 44 -214 54.2975 -214 67H-212C-212 55.402 -202.598 46 -191 46V44ZM19 23C19 34.598 9.59798 44 -2 44V46C10.7025 46 21 35.7025 21 23H19ZM252 1C263.598 1 273 10.402 273 22H275C275 9.29745 264.703 -1 252 -1V1ZM42 -1C29.2975 -1 19 9.29745 19 22H21C21 10.402 30.402 1 42 1V-1Z" fill="#1D1D20" mask="url(#path-1-inside-1_1774_1930)"/>
</g>
<defs>
<clipPath id="clip0_1774_1930">
<rect width="274" height="49" fill="white"/>
</clipPath>
</defs>
</svg>
