<svg width="64" height="143" viewBox="0 0 64 143" fill="none" xmlns="http://www.w3.org/2000/svg">
<rect x="-2" y="2" width="60" height="139" transform="matrix(-1 8.74228e-08 8.74228e-08 1 60 1.74846e-07)" fill="white" stroke="#505252" stroke-width="4"/>
<rect x="-2" y="2" width="52" height="133" transform="matrix(-1 8.74228e-08 8.74228e-08 1 56 6)" fill="white" stroke="white" stroke-width="4"/>
<line y1="-1" x2="56" y2="-1" transform="matrix(-1 0 0 1 60 142)" stroke="#ACACAC" stroke-width="2"/>
<line y1="-1" x2="56" y2="-1" transform="matrix(-1 0 0 1 60 138)" stroke="#ACACAC" stroke-width="2"/>
<line y1="-1" x2="56" y2="-1" transform="matrix(-1 0 0 1 60 134)" stroke="#ACACAC" stroke-width="2"/>
<line y1="-1" x2="56" y2="-1" transform="matrix(-1 0 0 1 60 130)" stroke="#ACACAC" stroke-width="2"/>
<line y1="-1" x2="56" y2="-1" transform="matrix(-1 0 0 1 60 126)" stroke="#ACACAC" stroke-width="2"/>
<line y1="-1" x2="56" y2="-1" transform="matrix(-1 0 0 1 60 122)" stroke="#ACACAC" stroke-width="2"/>
<line y1="-1" x2="56" y2="-1" transform="matrix(-1 0 0 1 60 118)" stroke="#ACACAC" stroke-width="2"/>
<line y1="-1" x2="56" y2="-1" transform="matrix(-1 0 0 1 60 114)" stroke="#ACACAC" stroke-width="2"/>
<line y1="-1" x2="56" y2="-1" transform="matrix(-1 0 0 1 60 110)" stroke="#ACACAC" stroke-width="2"/>
<line y1="-1" x2="56" y2="-1" transform="matrix(-1 0 0 1 60 106)" stroke="#ACACAC" stroke-width="2"/>
<line y1="-1" x2="56" y2="-1" transform="matrix(-1 0 0 1 60 102)" stroke="#ACACAC" stroke-width="2"/>
<line y1="-1" x2="56" y2="-1" transform="matrix(-1 0 0 1 60 98)" stroke="#ACACAC" stroke-width="2"/>
<line y1="-1" x2="56" y2="-1" transform="matrix(-1 0 0 1 60 94)" stroke="#ACACAC" stroke-width="2"/>
<line y1="-1" x2="56" y2="-1" transform="matrix(-1 0 0 1 60 90)" stroke="#ACACAC" stroke-width="2"/>
<line y1="-1" x2="56" y2="-1" transform="matrix(-1 0 0 1 60 86)" stroke="#ACACAC" stroke-width="2"/>
<line y1="-1" x2="56" y2="-1" transform="matrix(-1 0 0 1 60 82)" stroke="#ACACAC" stroke-width="2"/>
<line y1="-1" x2="56" y2="-1" transform="matrix(-1 0 0 1 60 78)" stroke="#ACACAC" stroke-width="2"/>
<line y1="-1" x2="56" y2="-1" transform="matrix(-1 0 0 1 60 74)" stroke="#ACACAC" stroke-width="2"/>
<line y1="-1" x2="56" y2="-1" transform="matrix(-1 0 0 1 60 70)" stroke="#ACACAC" stroke-width="2"/>
<line y1="-1" x2="56" y2="-1" transform="matrix(-1 0 0 1 60 66)" stroke="#ACACAC" stroke-width="2"/>
<line y1="-1" x2="56" y2="-1" transform="matrix(-1 0 0 1 60 62)" stroke="#ACACAC" stroke-width="2"/>
<line y1="-1" x2="56" y2="-1" transform="matrix(-1 0 0 1 60 58)" stroke="#ACACAC" stroke-width="2"/>
<line y1="-1" x2="56" y2="-1" transform="matrix(-1 0 0 1 60 54)" stroke="#ACACAC" stroke-width="2"/>
<line y1="-1" x2="56" y2="-1" transform="matrix(-1 0 0 1 60 50)" stroke="#ACACAC" stroke-width="2"/>
<line y1="-1" x2="56" y2="-1" transform="matrix(-1 0 0 1 60 46)" stroke="#ACACAC" stroke-width="2"/>
<line y1="-1" x2="56" y2="-1" transform="matrix(-1 0 0 1 60 42)" stroke="#ACACAC" stroke-width="2"/>
<line y1="-1" x2="56" y2="-1" transform="matrix(-1 0 0 1 60 38)" stroke="#ACACAC" stroke-width="2"/>
<line y1="-1" x2="56" y2="-1" transform="matrix(-1 0 0 1 60 34)" stroke="#ACACAC" stroke-width="2"/>
<line y1="-1" x2="56" y2="-1" transform="matrix(-1 0 0 1 60 30)" stroke="#ACACAC" stroke-width="2"/>
<line y1="-1" x2="56" y2="-1" transform="matrix(-1 0 0 1 60 26)" stroke="#ACACAC" stroke-width="2"/>
<line y1="-1" x2="56" y2="-1" transform="matrix(-1 0 0 1 60 22)" stroke="#ACACAC" stroke-width="2"/>
<line y1="-1" x2="56" y2="-1" transform="matrix(-1 0 0 1 60 18)" stroke="#ACACAC" stroke-width="2"/>
<line y1="-1" x2="56" y2="-1" transform="matrix(-1 0 0 1 60 14)" stroke="#ACACAC" stroke-width="2"/>
<line y1="-1" x2="56" y2="-1" transform="matrix(-1 0 0 1 60 10)" stroke="#ACACAC" stroke-width="2"/>
<line y1="-1" x2="56" y2="-1" transform="matrix(-1 0 0 1 60 6)" stroke="#ACACAC" stroke-width="2"/>
<rect width="36" height="64" transform="matrix(-4.37114e-08 -1 -1 4.37114e-08 64 143)" fill="url(#paint0_linear_1785_2519)"/>
<defs>
<linearGradient id="paint0_linear_1785_2519" x1="3.5" y1="32" x2="36" y2="32" gradientUnits="userSpaceOnUse">
<stop stop-color="white"/>
<stop offset="1" stop-color="white" stop-opacity="0"/>
</linearGradient>
</defs>
</svg>
