<svg width="143" height="64" viewBox="0 0 143 64" fill="none" xmlns="http://www.w3.org/2000/svg">
<rect x="141" y="2" width="60" height="139" transform="rotate(90 141 2)" fill="white" stroke="#505252" stroke-width="4"/>
<rect x="135" y="6" width="52" height="133" transform="rotate(90 135 6)" fill="white" stroke="white" stroke-width="4"/>
<line x1="2" y1="4" x2="2" y2="60" stroke="#ACACAC" stroke-width="2"/>
<line x1="6" y1="4" x2="6" y2="60" stroke="#ACACAC" stroke-width="2"/>
<line x1="10" y1="4" x2="10" y2="60" stroke="#ACACAC" stroke-width="2"/>
<line x1="14" y1="4" x2="14" y2="60" stroke="#ACACAC" stroke-width="2"/>
<line x1="18" y1="4" x2="18" y2="60" stroke="#ACACAC" stroke-width="2"/>
<line x1="22" y1="4" x2="22" y2="60" stroke="#ACACAC" stroke-width="2"/>
<line x1="26" y1="4" x2="26" y2="60" stroke="#ACACAC" stroke-width="2"/>
<line x1="30" y1="4" x2="30" y2="60" stroke="#ACACAC" stroke-width="2"/>
<line x1="34" y1="4" x2="34" y2="60" stroke="#ACACAC" stroke-width="2"/>
<line x1="38" y1="4" x2="38" y2="60" stroke="#ACACAC" stroke-width="2"/>
<line x1="42" y1="4" x2="42" y2="60" stroke="#ACACAC" stroke-width="2"/>
<line x1="46" y1="4" x2="46" y2="60" stroke="#ACACAC" stroke-width="2"/>
<line x1="50" y1="4" x2="50" y2="60" stroke="#ACACAC" stroke-width="2"/>
<line x1="54" y1="4" x2="54" y2="60" stroke="#ACACAC" stroke-width="2"/>
<line x1="58" y1="4" x2="58" y2="60" stroke="#ACACAC" stroke-width="2"/>
<line x1="62" y1="4" x2="62" y2="60" stroke="#ACACAC" stroke-width="2"/>
<line x1="66" y1="4" x2="66" y2="60" stroke="#ACACAC" stroke-width="2"/>
<line x1="70" y1="4" x2="70" y2="60" stroke="#ACACAC" stroke-width="2"/>
<line x1="74" y1="4" x2="74" y2="60" stroke="#ACACAC" stroke-width="2"/>
<line x1="78" y1="4" x2="78" y2="60" stroke="#ACACAC" stroke-width="2"/>
<line x1="82" y1="4" x2="82" y2="60" stroke="#ACACAC" stroke-width="2"/>
<line x1="86" y1="4" x2="86" y2="60" stroke="#ACACAC" stroke-width="2"/>
<line x1="90" y1="4" x2="90" y2="60" stroke="#ACACAC" stroke-width="2"/>
<line x1="94" y1="4" x2="94" y2="60" stroke="#ACACAC" stroke-width="2"/>
<line x1="98" y1="4" x2="98" y2="60" stroke="#ACACAC" stroke-width="2"/>
<line x1="102" y1="4" x2="102" y2="60" stroke="#ACACAC" stroke-width="2"/>
<line x1="106" y1="4" x2="106" y2="60" stroke="#ACACAC" stroke-width="2"/>
<line x1="110" y1="4" x2="110" y2="60" stroke="#ACACAC" stroke-width="2"/>
<line x1="114" y1="4" x2="114" y2="60" stroke="#ACACAC" stroke-width="2"/>
<line x1="118" y1="4" x2="118" y2="60" stroke="#ACACAC" stroke-width="2"/>
<line x1="122" y1="4" x2="122" y2="60" stroke="#ACACAC" stroke-width="2"/>
<line x1="126" y1="4" x2="126" y2="60" stroke="#ACACAC" stroke-width="2"/>
<line x1="130" y1="4" x2="130" y2="60" stroke="#ACACAC" stroke-width="2"/>
<line x1="134" y1="4" x2="134" y2="60" stroke="#ACACAC" stroke-width="2"/>
<line x1="138" y1="4" x2="138" y2="60" stroke="#ACACAC" stroke-width="2"/>
<rect width="36" height="64" fill="url(#paint0_linear_1794_2305)"/>
<defs>
<linearGradient id="paint0_linear_1794_2305" x1="3.5" y1="32" x2="36" y2="32" gradientUnits="userSpaceOnUse">
<stop stop-color="white"/>
<stop offset="1" stop-color="white" stop-opacity="0"/>
</linearGradient>
</defs>
</svg>
