<svg width="144" height="65" viewBox="0 0 144 65" fill="none" xmlns="http://www.w3.org/2000/svg">
<rect x="2" y="2" width="60" height="139" transform="matrix(1.31134e-07 1 1 -1.31134e-07 0.5 0.5)" fill="white" stroke="#505252" stroke-width="4"/>
<rect x="2" y="2" width="52" height="133" transform="matrix(1.31134e-07 1 1 -1.31134e-07 6.5 4.5)" fill="white" stroke="white" stroke-width="4"/>
<line y1="-1" x2="56" y2="-1" transform="matrix(4.37114e-08 1 1 -4.37114e-08 142.5 4.5)" stroke="#ACACAC" stroke-width="2"/>
<line y1="-1" x2="56" y2="-1" transform="matrix(4.37114e-08 1 1 -4.37114e-08 138.5 4.5)" stroke="#ACACAC" stroke-width="2"/>
<line y1="-1" x2="56" y2="-1" transform="matrix(4.37114e-08 1 1 -4.37114e-08 134.5 4.5)" stroke="#ACACAC" stroke-width="2"/>
<line y1="-1" x2="56" y2="-1" transform="matrix(4.37114e-08 1 1 -4.37114e-08 130.5 4.5)" stroke="#ACACAC" stroke-width="2"/>
<line y1="-1" x2="56" y2="-1" transform="matrix(4.37114e-08 1 1 -4.37114e-08 126.5 4.5)" stroke="#ACACAC" stroke-width="2"/>
<line y1="-1" x2="56" y2="-1" transform="matrix(4.37114e-08 1 1 -4.37114e-08 122.5 4.5)" stroke="#ACACAC" stroke-width="2"/>
<line y1="-1" x2="56" y2="-1" transform="matrix(4.37114e-08 1 1 -4.37114e-08 118.5 4.5)" stroke="#ACACAC" stroke-width="2"/>
<line y1="-1" x2="56" y2="-1" transform="matrix(4.37114e-08 1 1 -4.37114e-08 114.5 4.5)" stroke="#ACACAC" stroke-width="2"/>
<line y1="-1" x2="56" y2="-1" transform="matrix(4.37114e-08 1 1 -4.37114e-08 110.5 4.5)" stroke="#ACACAC" stroke-width="2"/>
<line y1="-1" x2="56" y2="-1" transform="matrix(4.37114e-08 1 1 -4.37114e-08 106.5 4.5)" stroke="#ACACAC" stroke-width="2"/>
<line y1="-1" x2="56" y2="-1" transform="matrix(4.37114e-08 1 1 -4.37114e-08 102.5 4.5)" stroke="#ACACAC" stroke-width="2"/>
<line y1="-1" x2="56" y2="-1" transform="matrix(4.37114e-08 1 1 -4.37114e-08 98.5 4.5)" stroke="#ACACAC" stroke-width="2"/>
<line y1="-1" x2="56" y2="-1" transform="matrix(4.37114e-08 1 1 -4.37114e-08 94.5 4.5)" stroke="#ACACAC" stroke-width="2"/>
<line y1="-1" x2="56" y2="-1" transform="matrix(4.37114e-08 1 1 -4.37114e-08 90.5 4.5)" stroke="#ACACAC" stroke-width="2"/>
<line y1="-1" x2="56" y2="-1" transform="matrix(4.37114e-08 1 1 -4.37114e-08 86.5 4.5)" stroke="#ACACAC" stroke-width="2"/>
<line y1="-1" x2="56" y2="-1" transform="matrix(4.37114e-08 1 1 -4.37114e-08 82.5 4.5)" stroke="#ACACAC" stroke-width="2"/>
<line y1="-1" x2="56" y2="-1" transform="matrix(4.37114e-08 1 1 -4.37114e-08 78.5 4.5)" stroke="#ACACAC" stroke-width="2"/>
<line y1="-1" x2="56" y2="-1" transform="matrix(4.37114e-08 1 1 -4.37114e-08 74.5 4.5)" stroke="#ACACAC" stroke-width="2"/>
<line y1="-1" x2="56" y2="-1" transform="matrix(4.37114e-08 1 1 -4.37114e-08 70.5 4.5)" stroke="#ACACAC" stroke-width="2"/>
<line y1="-1" x2="56" y2="-1" transform="matrix(4.37114e-08 1 1 -4.37114e-08 66.5 4.5)" stroke="#ACACAC" stroke-width="2"/>
<line y1="-1" x2="56" y2="-1" transform="matrix(4.37114e-08 1 1 -4.37114e-08 62.5 4.5)" stroke="#ACACAC" stroke-width="2"/>
<line y1="-1" x2="56" y2="-1" transform="matrix(4.37114e-08 1 1 -4.37114e-08 58.5 4.5)" stroke="#ACACAC" stroke-width="2"/>
<line y1="-1" x2="56" y2="-1" transform="matrix(4.37114e-08 1 1 -4.37114e-08 54.5 4.5)" stroke="#ACACAC" stroke-width="2"/>
<line y1="-1" x2="56" y2="-1" transform="matrix(4.37114e-08 1 1 -4.37114e-08 50.5 4.5)" stroke="#ACACAC" stroke-width="2"/>
<line y1="-1" x2="56" y2="-1" transform="matrix(4.37114e-08 1 1 -4.37114e-08 46.5 4.5)" stroke="#ACACAC" stroke-width="2"/>
<line y1="-1" x2="56" y2="-1" transform="matrix(4.37114e-08 1 1 -4.37114e-08 42.5 4.5)" stroke="#ACACAC" stroke-width="2"/>
<line y1="-1" x2="56" y2="-1" transform="matrix(4.37114e-08 1 1 -4.37114e-08 38.5 4.5)" stroke="#ACACAC" stroke-width="2"/>
<line y1="-1" x2="56" y2="-1" transform="matrix(4.37114e-08 1 1 -4.37114e-08 34.5 4.5)" stroke="#ACACAC" stroke-width="2"/>
<line y1="-1" x2="56" y2="-1" transform="matrix(4.37114e-08 1 1 -4.37114e-08 30.5 4.5)" stroke="#ACACAC" stroke-width="2"/>
<line y1="-1" x2="56" y2="-1" transform="matrix(4.37114e-08 1 1 -4.37114e-08 26.5 4.5)" stroke="#ACACAC" stroke-width="2"/>
<line y1="-1" x2="56" y2="-1" transform="matrix(4.37114e-08 1 1 -4.37114e-08 22.5 4.5)" stroke="#ACACAC" stroke-width="2"/>
<line y1="-1" x2="56" y2="-1" transform="matrix(4.37114e-08 1 1 -4.37114e-08 18.5 4.5)" stroke="#ACACAC" stroke-width="2"/>
<line y1="-1" x2="56" y2="-1" transform="matrix(4.37114e-08 1 1 -4.37114e-08 14.5 4.5)" stroke="#ACACAC" stroke-width="2"/>
<line y1="-1" x2="56" y2="-1" transform="matrix(4.37114e-08 1 1 -4.37114e-08 10.5 4.5)" stroke="#ACACAC" stroke-width="2"/>
<line y1="-1" x2="56" y2="-1" transform="matrix(4.37114e-08 1 1 -4.37114e-08 6.5 4.5)" stroke="#ACACAC" stroke-width="2"/>
<rect width="36" height="64" transform="matrix(-1 8.74228e-08 8.74228e-08 1 143.5 0.5)" fill="url(#paint0_linear_1794_2306)"/>
<defs>
<linearGradient id="paint0_linear_1794_2306" x1="3.5" y1="32" x2="36" y2="32" gradientUnits="userSpaceOnUse">
<stop stop-color="white"/>
<stop offset="1" stop-color="white" stop-opacity="0"/>
</linearGradient>
</defs>
</svg>
