<svg width="147" height="147" viewBox="0 0 147 147" fill="none" xmlns="http://www.w3.org/2000/svg">
<rect x="101.117" y="2.82843" width="60" height="139" transform="rotate(45 101.117 2.82843)" fill="white" stroke="#505252" stroke-width="4"/>
<rect x="99.7031" y="9.89972" width="52" height="133" transform="rotate(45 99.7031 9.89972)" fill="white" stroke="white" stroke-width="4"/>
<line x1="4.24617" y1="102.53" x2="43.8442" y2="142.128" stroke="#ACACAC" stroke-width="2"/>
<line x1="7.07429" y1="99.7021" x2="46.6723" y2="139.3" stroke="#ACACAC" stroke-width="2"/>
<line x1="9.90242" y1="96.873" x2="49.5004" y2="136.471" stroke="#ACACAC" stroke-width="2"/>
<line x1="12.7305" y1="94.0448" x2="52.3285" y2="133.643" stroke="#ACACAC" stroke-width="2"/>
<line x1="15.5587" y1="91.2167" x2="55.1567" y2="130.815" stroke="#ACACAC" stroke-width="2"/>
<line x1="18.3868" y1="88.3876" x2="57.9848" y2="127.986" stroke="#ACACAC" stroke-width="2"/>
<line x1="21.2149" y1="85.5595" x2="60.8129" y2="125.157" stroke="#ACACAC" stroke-width="2"/>
<line x1="24.043" y1="82.7314" x2="63.641" y2="122.329" stroke="#ACACAC" stroke-width="2"/>
<line x1="26.8712" y1="79.9032" x2="66.4692" y2="119.501" stroke="#ACACAC" stroke-width="2"/>
<line x1="29.6993" y1="77.0741" x2="69.2973" y2="116.672" stroke="#ACACAC" stroke-width="2"/>
<line x1="32.5274" y1="74.246" x2="72.1254" y2="113.844" stroke="#ACACAC" stroke-width="2"/>
<line x1="35.3555" y1="71.4179" x2="74.9535" y2="111.016" stroke="#ACACAC" stroke-width="2"/>
<line x1="38.1837" y1="68.5888" x2="77.7817" y2="108.187" stroke="#ACACAC" stroke-width="2"/>
<line x1="41.0196" y1="65.7607" x2="80.6176" y2="105.359" stroke="#ACACAC" stroke-width="2"/>
<line x1="43.8477" y1="62.9325" x2="83.4457" y2="102.531" stroke="#ACACAC" stroke-width="2"/>
<line x1="46.6759" y1="60.1034" x2="86.2738" y2="99.7014" stroke="#ACACAC" stroke-width="2"/>
<line x1="49.504" y1="57.2753" x2="89.102" y2="96.8733" stroke="#ACACAC" stroke-width="2"/>
<line x1="52.3321" y1="54.4472" x2="91.9301" y2="94.0452" stroke="#ACACAC" stroke-width="2"/>
<line x1="55.1602" y1="51.6181" x2="94.7582" y2="91.2161" stroke="#ACACAC" stroke-width="2"/>
<line x1="57.9884" y1="48.79" x2="97.5863" y2="88.3879" stroke="#ACACAC" stroke-width="2"/>
<line x1="60.8165" y1="45.9618" x2="100.414" y2="85.5598" stroke="#ACACAC" stroke-width="2"/>
<line x1="63.6446" y1="43.1327" x2="103.243" y2="82.7307" stroke="#ACACAC" stroke-width="2"/>
<line x1="66.4727" y1="40.3046" x2="106.071" y2="79.9026" stroke="#ACACAC" stroke-width="2"/>
<line x1="69.3009" y1="37.4765" x2="108.899" y2="77.0745" stroke="#ACACAC" stroke-width="2"/>
<line x1="72.129" y1="34.6484" x2="111.727" y2="74.2463" stroke="#ACACAC" stroke-width="2"/>
<line x1="74.9571" y1="31.8193" x2="114.555" y2="71.4172" stroke="#ACACAC" stroke-width="2"/>
<line x1="77.7852" y1="28.9911" x2="117.383" y2="68.5891" stroke="#ACACAC" stroke-width="2"/>
<line x1="80.6134" y1="26.163" x2="120.211" y2="65.761" stroke="#ACACAC" stroke-width="2"/>
<line x1="83.4415" y1="23.3339" x2="123.039" y2="62.9319" stroke="#ACACAC" stroke-width="2"/>
<line x1="86.2696" y1="20.5058" x2="125.868" y2="60.1038" stroke="#ACACAC" stroke-width="2"/>
<line x1="89.0977" y1="17.6777" x2="128.696" y2="57.2756" stroke="#ACACAC" stroke-width="2"/>
<line x1="91.9259" y1="14.8486" x2="131.524" y2="54.4465" stroke="#ACACAC" stroke-width="2"/>
<line x1="94.754" y1="12.0204" x2="134.352" y2="51.6184" stroke="#ACACAC" stroke-width="2"/>
<line x1="97.5821" y1="9.19231" x2="137.18" y2="48.7903" stroke="#ACACAC" stroke-width="2"/>
<line x1="100.41" y1="6.36321" x2="140.008" y2="45.9612" stroke="#ACACAC" stroke-width="2"/>
<rect y="101.116" width="36" height="64" transform="rotate(-45 0 101.116)" fill="url(#paint0_linear_1785_2518)"/>
<defs>
<linearGradient id="paint0_linear_1785_2518" x1="3.5" y1="133.116" x2="36" y2="133.116" gradientUnits="userSpaceOnUse">
<stop stop-color="white"/>
<stop offset="1" stop-color="white" stop-opacity="0"/>
</linearGradient>
</defs>
</svg>
