<svg width="201" height="64" viewBox="0 0 201 64" fill="none" xmlns="http://www.w3.org/2000/svg">
<rect x="199" y="2" width="60" height="197" transform="rotate(90 199 2)" fill="white" stroke="#505252" stroke-width="4"/>
<rect x="194" y="6" width="52" height="188" transform="rotate(90 194 6)" fill="white" stroke="white" stroke-width="4"/>
<line x1="5" y1="4" x2="5" y2="60" stroke="#ACACAC" stroke-width="2"/>
<line x1="9" y1="4" x2="9" y2="60" stroke="#ACACAC" stroke-width="2"/>
<line x1="13" y1="4" x2="13" y2="60" stroke="#ACACAC" stroke-width="2"/>
<line x1="17" y1="4" x2="17" y2="60" stroke="#ACACAC" stroke-width="2"/>
<line x1="21" y1="4" x2="21" y2="60" stroke="#ACACAC" stroke-width="2"/>
<line x1="25" y1="4" x2="25" y2="60" stroke="#ACACAC" stroke-width="2"/>
<line x1="29" y1="4" x2="29" y2="60" stroke="#ACACAC" stroke-width="2"/>
<line x1="33" y1="4" x2="33" y2="60" stroke="#ACACAC" stroke-width="2"/>
<line x1="37" y1="4" x2="37" y2="60" stroke="#ACACAC" stroke-width="2"/>
<line x1="41" y1="4" x2="41" y2="60" stroke="#ACACAC" stroke-width="2"/>
<line x1="45" y1="4" x2="45" y2="60" stroke="#ACACAC" stroke-width="2"/>
<line x1="49" y1="4" x2="49" y2="60" stroke="#ACACAC" stroke-width="2"/>
<line x1="53" y1="4" x2="53" y2="60" stroke="#ACACAC" stroke-width="2"/>
<line x1="57" y1="4" x2="57" y2="60" stroke="#ACACAC" stroke-width="2"/>
<line x1="61" y1="4" x2="61" y2="60" stroke="#ACACAC" stroke-width="2"/>
<line x1="65" y1="4" x2="65" y2="60" stroke="#ACACAC" stroke-width="2"/>
<line x1="69" y1="4" x2="69" y2="60" stroke="#ACACAC" stroke-width="2"/>
<line x1="73" y1="4" x2="73" y2="60" stroke="#ACACAC" stroke-width="2"/>
<line x1="77" y1="4" x2="77" y2="60" stroke="#ACACAC" stroke-width="2"/>
<line x1="81" y1="4" x2="81" y2="60" stroke="#ACACAC" stroke-width="2"/>
<line x1="85" y1="4" x2="85" y2="60" stroke="#ACACAC" stroke-width="2"/>
<line x1="89" y1="4" x2="89" y2="60" stroke="#ACACAC" stroke-width="2"/>
<line x1="93" y1="4" x2="93" y2="60" stroke="#ACACAC" stroke-width="2"/>
<line x1="97" y1="4" x2="97" y2="60" stroke="#ACACAC" stroke-width="2"/>
<line x1="101" y1="4" x2="101" y2="60" stroke="#ACACAC" stroke-width="2"/>
<line x1="105" y1="4" x2="105" y2="60" stroke="#ACACAC" stroke-width="2"/>
<line x1="109" y1="4" x2="109" y2="60" stroke="#ACACAC" stroke-width="2"/>
<line x1="113" y1="4" x2="113" y2="60" stroke="#ACACAC" stroke-width="2"/>
<line x1="117" y1="4" x2="117" y2="60" stroke="#ACACAC" stroke-width="2"/>
<line x1="121" y1="4" x2="121" y2="60" stroke="#ACACAC" stroke-width="2"/>
<line x1="125" y1="4" x2="125" y2="60" stroke="#ACACAC" stroke-width="2"/>
<line x1="129" y1="4" x2="129" y2="60" stroke="#ACACAC" stroke-width="2"/>
<line x1="133" y1="4" x2="133" y2="60" stroke="#ACACAC" stroke-width="2"/>
<line x1="137" y1="4" x2="137" y2="60" stroke="#ACACAC" stroke-width="2"/>
<line x1="141" y1="4" x2="141" y2="60" stroke="#ACACAC" stroke-width="2"/>
<line x1="145" y1="4" x2="145" y2="60" stroke="#ACACAC" stroke-width="2"/>
<line x1="149" y1="4" x2="149" y2="60" stroke="#ACACAC" stroke-width="2"/>
<line x1="153" y1="4" x2="153" y2="60" stroke="#ACACAC" stroke-width="2"/>
<line x1="157" y1="4" x2="157" y2="60" stroke="#ACACAC" stroke-width="2"/>
<line x1="161" y1="4" x2="161" y2="60" stroke="#ACACAC" stroke-width="2"/>
<line x1="165" y1="4" x2="165" y2="60" stroke="#ACACAC" stroke-width="2"/>
<line x1="169" y1="4" x2="169" y2="60" stroke="#ACACAC" stroke-width="2"/>
<line x1="173" y1="4" x2="173" y2="60" stroke="#ACACAC" stroke-width="2"/>
<line x1="177" y1="4" x2="177" y2="60" stroke="#ACACAC" stroke-width="2"/>
<line x1="181" y1="4" x2="181" y2="60" stroke="#ACACAC" stroke-width="2"/>
<line x1="185" y1="4" x2="185" y2="60" stroke="#ACACAC" stroke-width="2"/>
<line x1="189" y1="4" x2="189" y2="60" stroke="#ACACAC" stroke-width="2"/>
<line x1="193" y1="4" x2="193" y2="60" stroke="#ACACAC" stroke-width="2"/>
<line x1="197" y1="4" x2="197" y2="60" stroke="#ACACAC" stroke-width="2"/>
</svg>
