<svg width="143" height="64" viewBox="0 0 143 64" fill="none" xmlns="http://www.w3.org/2000/svg">
<g opacity="0.1">
<rect x="2" y="2" width="60" height="139" transform="matrix(4.37114e-08 1 1 -4.37114e-08 8.74228e-08 -8.74228e-08)" fill="white" stroke="#505252" stroke-width="4"/>
<rect x="2" y="2" width="52" height="133" transform="matrix(4.37114e-08 1 1 -4.37114e-08 6 4)" fill="white" stroke="white" stroke-width="4"/>
<line y1="-1" x2="56" y2="-1" transform="matrix(-4.37114e-08 1 1 4.37114e-08 142 4)" stroke="#ACACAC" stroke-width="2"/>
<line y1="-1" x2="56" y2="-1" transform="matrix(-4.37114e-08 1 1 4.37114e-08 138 4)" stroke="#ACACAC" stroke-width="2"/>
<line y1="-1" x2="56" y2="-1" transform="matrix(-4.37114e-08 1 1 4.37114e-08 134 4)" stroke="#ACACAC" stroke-width="2"/>
<line y1="-1" x2="56" y2="-1" transform="matrix(-4.37114e-08 1 1 4.37114e-08 130 4)" stroke="#ACACAC" stroke-width="2"/>
<line y1="-1" x2="56" y2="-1" transform="matrix(-4.37114e-08 1 1 4.37114e-08 126 4)" stroke="#ACACAC" stroke-width="2"/>
<line y1="-1" x2="56" y2="-1" transform="matrix(-4.37114e-08 1 1 4.37114e-08 122 4)" stroke="#ACACAC" stroke-width="2"/>
<line y1="-1" x2="56" y2="-1" transform="matrix(-4.37114e-08 1 1 4.37114e-08 118 4)" stroke="#ACACAC" stroke-width="2"/>
<line y1="-1" x2="56" y2="-1" transform="matrix(-4.37114e-08 1 1 4.37114e-08 114 4)" stroke="#ACACAC" stroke-width="2"/>
<line y1="-1" x2="56" y2="-1" transform="matrix(-4.37114e-08 1 1 4.37114e-08 110 4)" stroke="#ACACAC" stroke-width="2"/>
<line y1="-1" x2="56" y2="-1" transform="matrix(-4.37114e-08 1 1 4.37114e-08 106 4)" stroke="#ACACAC" stroke-width="2"/>
<line y1="-1" x2="56" y2="-1" transform="matrix(-4.37114e-08 1 1 4.37114e-08 102 4)" stroke="#ACACAC" stroke-width="2"/>
<line y1="-1" x2="56" y2="-1" transform="matrix(-4.37114e-08 1 1 4.37114e-08 98 4)" stroke="#ACACAC" stroke-width="2"/>
<line y1="-1" x2="56" y2="-1" transform="matrix(-4.37114e-08 1 1 4.37114e-08 94 4)" stroke="#ACACAC" stroke-width="2"/>
<line y1="-1" x2="56" y2="-1" transform="matrix(-4.37114e-08 1 1 4.37114e-08 90 4)" stroke="#ACACAC" stroke-width="2"/>
<line y1="-1" x2="56" y2="-1" transform="matrix(-4.37114e-08 1 1 4.37114e-08 86 4)" stroke="#ACACAC" stroke-width="2"/>
<line y1="-1" x2="56" y2="-1" transform="matrix(-4.37114e-08 1 1 4.37114e-08 82 4)" stroke="#ACACAC" stroke-width="2"/>
<line y1="-1" x2="56" y2="-1" transform="matrix(-4.37114e-08 1 1 4.37114e-08 78 4)" stroke="#ACACAC" stroke-width="2"/>
<line y1="-1" x2="56" y2="-1" transform="matrix(-4.37114e-08 1 1 4.37114e-08 74 4)" stroke="#ACACAC" stroke-width="2"/>
<line y1="-1" x2="56" y2="-1" transform="matrix(-4.37114e-08 1 1 4.37114e-08 70 4)" stroke="#ACACAC" stroke-width="2"/>
<line y1="-1" x2="56" y2="-1" transform="matrix(-4.37114e-08 1 1 4.37114e-08 66 4)" stroke="#ACACAC" stroke-width="2"/>
<line y1="-1" x2="56" y2="-1" transform="matrix(-4.37114e-08 1 1 4.37114e-08 62 4)" stroke="#ACACAC" stroke-width="2"/>
<line y1="-1" x2="56" y2="-1" transform="matrix(-4.37114e-08 1 1 4.37114e-08 58 4)" stroke="#ACACAC" stroke-width="2"/>
<line y1="-1" x2="56" y2="-1" transform="matrix(-4.37114e-08 1 1 4.37114e-08 54 4)" stroke="#ACACAC" stroke-width="2"/>
<line y1="-1" x2="56" y2="-1" transform="matrix(-4.37114e-08 1 1 4.37114e-08 50 4)" stroke="#ACACAC" stroke-width="2"/>
<line y1="-1" x2="56" y2="-1" transform="matrix(-4.37114e-08 1 1 4.37114e-08 46 4)" stroke="#ACACAC" stroke-width="2"/>
<line y1="-1" x2="56" y2="-1" transform="matrix(-4.37114e-08 1 1 4.37114e-08 42 4)" stroke="#ACACAC" stroke-width="2"/>
<line y1="-1" x2="56" y2="-1" transform="matrix(-4.37114e-08 1 1 4.37114e-08 38 4)" stroke="#ACACAC" stroke-width="2"/>
<line y1="-1" x2="56" y2="-1" transform="matrix(-4.37114e-08 1 1 4.37114e-08 34 4)" stroke="#ACACAC" stroke-width="2"/>
<line y1="-1" x2="56" y2="-1" transform="matrix(-4.37114e-08 1 1 4.37114e-08 30 4)" stroke="#ACACAC" stroke-width="2"/>
<line y1="-1" x2="56" y2="-1" transform="matrix(-4.37114e-08 1 1 4.37114e-08 26 4)" stroke="#ACACAC" stroke-width="2"/>
<line y1="-1" x2="56" y2="-1" transform="matrix(-4.37114e-08 1 1 4.37114e-08 22 4)" stroke="#ACACAC" stroke-width="2"/>
<line y1="-1" x2="56" y2="-1" transform="matrix(-4.37114e-08 1 1 4.37114e-08 18 4)" stroke="#ACACAC" stroke-width="2"/>
<line y1="-1" x2="56" y2="-1" transform="matrix(-4.37114e-08 1 1 4.37114e-08 14 4)" stroke="#ACACAC" stroke-width="2"/>
<line y1="-1" x2="56" y2="-1" transform="matrix(-4.37114e-08 1 1 4.37114e-08 10 4)" stroke="#ACACAC" stroke-width="2"/>
<line y1="-1" x2="56" y2="-1" transform="matrix(-4.37114e-08 1 1 4.37114e-08 6 4)" stroke="#ACACAC" stroke-width="2"/>
<rect width="36" height="64" transform="matrix(-1 0 0 1 143 0)" fill="url(#paint0_linear_1785_2516)"/>
</g>
<defs>
<linearGradient id="paint0_linear_1785_2516" x1="3.5" y1="32" x2="36" y2="32" gradientUnits="userSpaceOnUse">
<stop stop-color="white"/>
<stop offset="1" stop-color="white" stop-opacity="0"/>
</linearGradient>
</defs>
</svg>
